<svg width="101" height="94" viewBox="0 0 101 94" fill="none" xmlns="http://www.w3.org/2000/svg">
<path d="M15.3474 56.2856C12.8034 56.2856 10.5114 55.7336 8.47141 54.6296C6.43141 53.5016 4.82341 51.9536 3.64741 49.9856C2.49541 48.0176 1.91941 45.8216 1.91941 43.3976C1.91941 40.9736 2.49541 38.7776 3.64741 36.8096C4.82341 34.8416 6.43141 33.3056 8.47141 32.2016C10.5114 31.0736 12.8034 30.5096 15.3474 30.5096C17.8674 30.5096 20.1474 31.0736 22.1874 32.2016C24.2274 33.3056 25.8234 34.8416 26.9754 36.8096C28.1274 38.7536 28.7034 40.9496 28.7034 43.3976C28.7034 45.8456 28.1274 48.0536 26.9754 50.0216C25.8234 51.9656 24.2274 53.5016 22.1874 54.6296C20.1474 55.7336 17.8674 56.2856 15.3474 56.2856ZM15.3474 53.0816C17.1954 53.0816 18.8514 52.6616 20.3154 51.8216C21.8034 50.9816 22.9674 49.8296 23.8074 48.3656C24.6714 46.8776 25.1034 45.2216 25.1034 43.3976C25.1034 41.5736 24.6714 39.9296 23.8074 38.4656C22.9674 36.9776 21.8034 35.8136 20.3154 34.9736C18.8514 34.1336 17.1954 33.7136 15.3474 33.7136C13.4994 33.7136 11.8194 34.1336 10.3074 34.9736C8.81941 35.8136 7.64341 36.9776 6.77941 38.4656C5.93941 39.9296 5.51941 41.5736 5.51941 43.3976C5.51941 45.2216 5.93941 46.8776 6.77941 48.3656C7.64341 49.8296 8.81941 50.9816 10.3074 51.8216C11.8194 52.6616 13.4994 53.0816 15.3474 53.0816ZM57.5698 55.9976L57.5338 37.6376L48.4258 52.9376H46.7698L37.6618 37.7456V55.9976H34.2058V30.7976H37.1578L47.6698 48.5096L58.0378 30.7976H60.9898L61.0258 55.9976H57.5698Z" fill="#333333"/>
<path d="M76.6783 20.6298L75.2649 20.1976C75.0688 20.1377 74.8618 20.1941 74.7294 20.3433C74.386 20.7309 74.0092 21.0994 73.6093 21.4387C70.6452 23.9537 66.9246 24.8125 62.85 23.9233C58.7957 23.0386 56.9322 20.692 54.353 17.4441C54.1686 17.2118 53.981 16.9756 53.7891 16.7357C53.7673 16.7083 53.7416 16.6724 53.7144 16.6344C53.6428 16.5343 53.5536 16.4098 53.4281 16.287C53.2576 16.1201 53.0719 15.9646 52.8761 15.825C52.4716 15.5364 52.2018 15.082 52.1361 14.5784L51.7024 11.2566C51.6836 11.1126 51.6098 10.9796 51.4971 10.8866C51.3846 10.7935 51.2423 10.7482 51.1017 10.7606L48.9617 10.9488C48.6692 10.9745 48.4637 11.2384 48.5027 11.5381L48.9187 14.7244C48.9642 15.0732 48.8514 15.428 48.6092 15.6977C48.2393 16.1095 48.0509 16.6178 48.0642 17.1673C48.2326 24.1161 52.8916 29.2594 60.5271 30.9255C63.8224 31.6445 67.3266 31.2145 70.3941 29.7146C71.0115 29.4127 71.5957 29.0749 72.1441 28.7029C72.9085 28.1844 73.6034 27.5995 74.2215 26.9536C75.3264 25.7991 76.1295 24.5062 76.6087 23.111C76.8142 22.5124 76.971 21.8917 77.0744 21.266C77.1203 20.989 76.948 20.7123 76.6783 20.6298ZM49.6332 11.9875L50.7136 11.8925L51.0011 14.0943L50.5648 14.105L49.9117 14.121L49.6332 11.9875ZM71.5314 27.7872C68.5608 29.8018 64.5296 30.6956 60.7032 29.8607C53.613 28.3135 49.2877 23.5775 49.1329 17.1918C49.1246 16.8488 49.2808 16.6009 49.4132 16.4535C49.728 16.1029 49.9232 15.6684 49.9802 15.2102L51.1886 15.1806C51.3811 15.7938 51.7672 16.3339 52.2911 16.7076C52.4387 16.8129 52.5786 16.9299 52.7067 17.0553C52.7595 17.107 52.8063 17.1726 52.8607 17.2485C52.8956 17.2973 52.9317 17.3477 52.9729 17.3992C53.1639 17.6383 53.3508 17.8735 53.5345 18.1049C56.1583 21.409 58.2307 24.0186 62.6737 24.9881C64.9004 25.474 67.0495 25.4727 69.0614 24.9844C70.8865 24.5414 72.5656 23.7073 74.0574 22.5031L74.0933 22.5206L74.2848 22.6142C73.5154 23.8093 72.5337 24.8047 71.3974 25.5753C68.9006 27.2686 65.662 27.879 62.3163 27.149C57.1068 26.0123 53.3962 23.2086 51.8678 19.2544C51.758 18.9702 51.4468 18.8198 51.1728 18.9184C50.8987 19.0169 50.7657 19.3273 50.8755 19.6116C52.548 23.9387 56.5485 26.9938 62.1401 28.2138C64.8685 28.8091 67.5783 28.5923 69.9764 27.5867C70.7048 27.2813 71.3903 26.9101 72.0272 26.478C73.3342 25.5915 74.4353 24.4491 75.2776 23.0992L75.424 23.1707C74.6693 25.0172 73.2854 26.5976 71.5314 27.7872ZM75.7706 22.1544L75.5521 22.0477L74.9213 21.7396C75.0568 21.6079 75.1891 21.4733 75.3175 21.3361L75.9274 21.5226C75.8817 21.7348 75.8294 21.9456 75.7706 22.1544Z" fill="black"/>
</svg>
